<?xml version="1.0" encoding="utf-8"?>
<!-- Svg Vector Icons : http://www.onlinewebfonts.com/icon -->
<!DOCTYPE svg PUBLIC "-//W3C//DTD SVG 1.1//EN" "http://www.w3.org/Graphics/SVG/1.1/DTD/svg11.dtd">
<svg version="1.1" xmlns="http://www.w3.org/2000/svg" xmlns:xlink="http://www.w3.org/1999/xlink" x="0px" y="0px" viewBox="0 0 1000 1000" enable-background="new 0 0 1000 1000" xml:space="preserve">
<metadata> Svg Vector Icons : http://www.onlinewebfonts.com/icon </metadata>
<g><g transform="translate(0.000000,511.000000) scale(0.100000,-0.100000)"><path d="M4515.8,4995.7C3023.9,4832,1732.6,4050.3,897.8,2802.8C524.3,2242.5,252.2,1532.3,141.5,822.1c-55.3-362-55.3-1063,0-1425c133.8-848.6,454.3-1598,982.3-2296.7c154.5-205.2,585.7-641,809.4-816.3c701-558,1471.2-894.7,2354.3-1033c357.4-55.3,1065.3-55.3,1415.8,0C6621-4606,7444.2-4237,8129.1-3662.8c947.7,793.2,1538,1842.4,1729.4,3069.1c55.3,350.5,55.3,1058.4,0,1415.8c-172.9,1109.1-666.4,2054.5-1482.7,2838.5C7654.1,4357,6738.7,4808.9,5737.9,4963.5C5445,5007.3,4783.3,5025.7,4515.8,4995.7z M5438.1,4027.3c304.4-36.9,518.8-85.3,809.4-182.2c844-279,1568-839.3,2054.6-1591.1c998.4-1538,811.7-3534.9-454.3-4863.1c-1314.4-1374.3-3398.9-1618.7-4992.2-583.4c-594.9,387.4-1063,908.5-1383.5,1547.2c-742.5,1485-468.1,3281.3,687.1,4480.4c641.1,664.1,1457.3,1074.5,2379.7,1192.1C4757.9,4054.9,5214.5,4057.2,5438.1,4027.3z"/><path d="M3247.5,2380.9c0-119.9-9.2-177.6-27.7-182.2c-262.9-76.1-481.9-251.3-585.7-470.4c-126.8-262.9-96.9-611.1,69.2-846.3c189.1-262.9,389.7-355.1,830.1-373.6c246.7-11.5,304.4-20.8,341.3-57.6c57.7-57.6,55.4-189.1-4.6-249c-43.8-43.8-76.1-46.1-680.2-46.1h-634.1v-334.3v-332.1l341.3-6.9l339-6.9l6.9-166l6.9-168.3h332h334.4V-679v179.9l99.1,25.4c53.1,16.1,145.3,60,205.2,99.2c408.1,272.1,488.9,862.4,170.6,1252.1c-182.2,223.7-438.1,313.6-883.2,315.9c-166,0-196,6.9-237.5,50.7c-62.3,69.2-59.9,182.2,6.9,244.4c53.1,50.7,69.2,50.7,691.8,50.7H4608v334.4v334.4h-345.9h-345.9v172.9v172.9h-334.4h-334.4V2380.9z"/><path d="M6083.8,2369.3c0-159.1-4.6-184.5-39.2-184.5c-80.7,0-283.6-115.3-385.1-214.4c-267.5-267.5-327.4-675.6-147.6-1010c172.9-327.4,454.3-456.6,991.5-458.9c152.2,0,184.5-6.9,226-50.7c62.3-69.2,59.9-182.2-6.9-244.4c-53-50.7-69.2-50.7-691.8-50.7H5392v-334.3V-513h345.9h345.9V-686v-172.9h334.4h334.4V-686c0,119.9,9.2,177.6,30,182.1c260.6,76.1,479.6,251.3,583.4,470.4c126.8,262.9,96.9,611.1-69.2,846.3c-189.1,262.9-389.7,355.1-830.1,373.6c-246.7,11.5-304.4,20.8-341.3,57.6c-57.7,57.6-55.3,189.1,4.6,249c43.8,43.8,76.1,46.1,680.2,46.1h634.1v334.4v332l-339,6.9l-341.3,6.9l-6.9,168.3l-6.9,166h-332.1h-334.4V2369.3z"/><path d="M4031.5-1850.4v-484.2H5000h968.5v484.2v484.2H5000h-968.5V-1850.4z"/></g></g>
</svg>